#!OML:ASF Y:\EmotionMaleHayes\Project 1\Capture day 1\Session 1\Male1.ASF
:FULLY-SPECIFIED
:DEGREES
1364
root 46.1843 17.2992 -2.29213 1079.96 77.0377 1083.92
lowerback 3.91249 1.75057 -0.449778
upperback 3.49106 2.37122 1.75489
thorax 1.3001 1.18532 1.98784
lowerneck -32.2539 3.96125 5.64012
upperneck 16.728 3.38289 -2.03398
head 10.6991 1.65913 -1.03785
rclavicle -1.95803e-014 7.95139e-015
rhumerus 36.8089 25.7412 -47.4858
rradius 39.7646
rwrist -2.30089
rhand -1.72454 -31.3969
rfingers 7.12502
rthumb 23.9376 -59.9247
lclavicle -1.95803e-014 7.95139e-015
lhumerus 30.2466 -26.4787 40.3809
lradius 41.2101
lwrist 5.37961
lhand -10.9361 -22.4758
lfingers 7.12502
lthumb 15.082 6.9548
rfemur 16.6373 -0.0981355 2.60055
rtibia 13.7434
rfoot -8.65077 -14.2771
rtoes 10.6094
lfemur 1.65403 2.70447 -16.8091
ltibia 13.6117
lfoot -11.5943 10.0279
ltoes -3.97691
1365
root 46.2463 17.3037 -2.31908 1082.18 76.7056 1086.09
lowerback 3.38137 1.83245 -1.34488
upperback 3.75191 2.46289 1.56134
thorax 1.83469 1.20855 2.31302
lowerneck -32.7363 3.97695 5.7622
upperneck 16.7442 3.40528 -2.38355
head 10.7922 1.6272 -1.17862
rclavicle 3.23025e-015 0
rhumerus 36.6743 25.7685 -47.4237
rradius 39.7737
rwrist -2.36842
rhand -1.65202 -31.4444
rfingers 7.12502
rthumb 24.0071 -59.9631
lclavicle 3.23025e-015 0
lhumerus 30.2567 -26.5642 40.4339
lradius 41.2381
lwrist 5.42121
lhand -11.0331 -22.3163
lfingers 7.12502
lthumb 14.9886 7.12129
rfemur 16.2834 -0.065486 1.76116
rtibia 14.1081
rfoot -8.50531 -14.1135
rtoes 12.8202
lfemur 2.02019 2.93906 -17.5634
ltibia 13.2058
lfoot -11.7203 10.0606
ltoes -4.08643
1366
root 46.2827 17.308 -2.34077 1081.47 76.3188 1085.38
lowerback 3.48805 1.93475 -1.60971
upperback 3.77277 2.59409 1.51693
thorax 1.78118 1.26937 2.40925
lowerneck -32.7036 3.92272 5.49615
upperneck 16.4683 3.36849 -2.04239
head 10.6696 1.63889 -1.01721
rclavicle 9.14409e-015 1.59028e-015
rhumerus 36.1374 25.8542 -47.7483
rradius 39.7562
rwrist -2.26932
rhand -1.56868 -31.4487
rfingers 7.12502
rthumb 24.087 -59.9568
lclavicle 9.14409e-015 1.59028e-015
lhumerus 30.1319 -26.9802 40.3849
lradius 41.2445
lwrist 5.53473
lhand -11.1525 -22.407
lfingers 7.12502
lthumb 14.8735 7.03912
rfemur 15.8333 0.390131 2.07879
rtibia 14.4897
rfoot -8.05123 -14.9882
rtoes 12.2033
lfemur 2.30875 3.09298 -17.3523
ltibia 12.9776
lfoot -11.9099 10.1698
ltoes -3.24061
1367
root 46.361 17.3182 -2.38584 1078.08 76.6959 1081.95
lowerback 3.60768 1.71219 -0.836413
upperback 3.54075 2.30919 1.62782
thorax 1.51422 1.14521 2.08709
lowerneck -32.4472 4.04876 5.65735
upperneck 16.6204 3.55524 -2.33421
head 10.7029 1.69582 -1.11902
rclavicle -2.5842e-015 -1.07344e-014
rhumerus 35.1451 26.3922 -48.2302
rradius 39.796
rwrist -2.13265
rhand -1.585 -31.3885
rfingers 7.12502
rthumb 24.0714 -59.8987
lclavicle -2.5842e-015 -1.07344e-014
lhumerus 29.3579 -27.5265 40.8746
lradius 41.2537
lwrist 5.42328
lhand -11.2134 -22.5527
lfingers 7.12502
lthumb 14.8149 6.89776
rfemur 16.1188 0.00172735 2.80347
rtibia 14.5402
rfoot -8.45505 -15.0122
rtoes 16.291
lfemur 2.82863 2.85571 -16.7056
ltibia 12.5332
lfoot -11.8833 9.93449
ltoes -3.22382
1368
root 46.3967 17.3206 -2.40832 1078.27 76.4506 1082.28
lowerback 3.67479 1.76412 -1.37829
upperback 3.75304 2.37032 1.57154
thorax 1.67484 1.16386 2.33393
lowerneck -32.6841 4.06928 5.50723
upperneck 16.3961 3.59916 -2.18981
head 10.6517 1.72383 -1.03198
rclavicle 2.5842e-015 -6.36111e-015
rhumerus 34.9152 26.465 -48.2879
rradius 39.8124
rwrist -2.15182
rhand -1.69325 -31.3811
rfingers 7.12502
rthumb 23.9676 -59.905
lclavicle 2.5842e-015 -6.36111e-015
lhumerus 29.1512 -27.3859 41.2392
lradius 41.2391
lwrist 5.15276
lhand -11.295 -22.601
lfingers 7.12502
lthumb 14.7363 6.85516
rfemur 15.8641 0.30243 2.78012
rtibia 14.9511
rfoot -8.31644 -15.4098
rtoes 14.9792
lfemur 3.14345 2.93905 -16.7977
ltibia 12.4554
lfoot -11.9435 10.0909
ltoes -3.29427
